<svg width="20" height="19" viewBox="0 0 20 19" fill="none" xmlns="http://www.w3.org/2000/svg">
<path fill-rule="evenodd" clip-rule="evenodd" d="M2.18256 9.5447C2.18256 13.8113 5.84644 17.1286 10.039 17.1286C11.2662 17.1286 12.8774 16.6729 14.3404 15.7721C15.4086 15.1145 16.2977 14.2826 16.8922 13.3444C16.8333 13.3515 16.7726 13.3587 16.7098 13.3662L16.6727 13.3707C14.8003 13.5936 11.2783 14.013 8.73188 11.435C6.23999 8.9124 6.34652 5.57739 6.52183 3.49327C6.54451 3.2237 6.57837 2.87846 6.60809 2.57551C6.61827 2.4717 6.62796 2.37286 6.63655 2.28373C6.60051 2.30391 6.56366 2.32505 6.52601 2.34717C5.89557 2.71758 5.18608 3.28107 4.52195 4.00825C3.1802 5.47737 2.18256 7.43057 2.18256 9.5447ZM6.6876 1.05436C6.6876 1.05436 6.68917 1.05968 6.69093 1.07209C6.68826 1.06086 6.6876 1.05436 6.6876 1.05436ZM10.039 19C4.95449 19 0.333984 14.9707 0.333984 9.5447C0.333984 4.11854 5.41757 0.0007306 7.72829 6.28117e-08C8.72136 -0.000313841 8.60479 1.17596 8.44239 2.81467C8.22692 4.98901 7.93076 7.97748 10.039 10.1118C11.9575 12.0539 14.7059 11.723 16.7165 11.4809C18.5808 11.2565 19.8106 11.1084 19.1565 12.9192C17.7968 16.683 13.2741 19 10.039 19Z" fill="#B3B3B3"/>
</svg>
